<svg width="50" height="130" viewBox="0 0 50 130" xmlns="http://www.w3.org/2000/svg">
    <defs>
        <linearGradient id="grad_diente_25" x1="0%" y1="0%" x2="0%" y2="100%">
            <stop offset="0%" style="stop-color:#FFFFFF;stop-opacity:1" />
            <stop offset="100%" style="stop-color:#F1F5F9;stop-opacity:1" />
        </linearGradient>
    </defs>
    <g transform="translate(4, 2)" fill-rule="nonzero" stroke="#9F9F9F" stroke-width="0.9" stroke-linejoin="round">
        
        <path d="M18.9016417,123.102086 C18.9016417,123.102086 36.3016417,120.602086 38.0016417,116.102086 C39.7016417,111.602086 41.2016417,102.102086 39.8016417,97.3020858 C38.4016417,92.5020858 32.9016417,80.3020858 32.7016417,79.2020858 C32.5016417,78.1020858 25.3016417,35.3020858 25.6016417,21.0020858 C25.9016417,6.70208575 26.4016417,0.102085751 23.8016417,0.0020857509 C21.2016417,-0.0979142491 18.0016417,3.40208575 17.0016417,9.60208575 C16.0016417,15.8020858 5.40164165,82.5020858 4.90164165,83.7020858 C4.40164165,84.9020858 -0.0983583492,94.8020858 0.00164165083,102.202086 C0.101641651,109.602086 11.2016417,123.002086 18.9016417,123.102086 Z" 
              fill="url(#grad_diente_25)"/>
        
        <path d="M32.5016417,79.9020858 C29.6016417,78.8020858 27.0016417,77.2020858 24.0016417,76.6020858 C21.3016417,76.1020858 18.3016417,75.9020858 15.6016417,76.0020858 C13.3016417,76.1020858 11.2016417,77.2020858 9.00164165,77.9020858 C7.90164165,78.2020858 6.70164165,78.5020858 5.70164165,79.2020858" 
              fill="none"/>
    </g>
</svg>
